Coordinates
version=1
nRows=31
nColumns=38
inDegrees=no

Units are S.I. units (second, meters, Newtons, ...)
If the header above contains a line with 'inDegrees', this indicates whether rotational values are in degrees (yes) or radians (no).

endheader
time	pelvis_tilt	pelvis_list	pelvis_rotation	pelvis_tx	pelvis_ty	pelvis_tz	hip_flexion_r	hip_adduction_r	hip_rotation_r	knee_angle_r	ankle_angle_r	subtalar_angle_r	mtp_angle_r	hip_flexion_l	hip_adduction_l	hip_rotation_l	knee_angle_l	ankle_angle_l	subtalar_angle_l	mtp_angle_l	lumbar_extension	lumbar_bending	lumbar_rotation	arm_flex_r	arm_add_r	arm_rot_r	elbow_flex_r	pro_sup_r	wrist_flex_r	wrist_dev_r	arm_flex_l	arm_add_l	arm_rot_l	elbow_flex_l	pro_sup_l	wrist_flex_l	wrist_dev_l
0.58	-0.116319	1.50416	1.51154	0.708249	-0.0591207	1.00995	-0.0796178	0.000509885	-0.0271902	0.604993	0.194057	0	0	0.498966	-0.136399	-0.286094	0.561979	0.135721	0	0	0.0675248	-0.0099959	0.24384	0.230265	-0.516602	0.667535	0.605117	1.07874	0	0	-0.145811	-0.188306	0.538594	0.197125	1.36733	0	0
0.59	-0.273347	1.50557	1.66697	0.708145	-0.0452875	1.01093	-0.0846165	-0.0136741	-0.0197727	0.619574	0.175626	0	0	0.489309	-0.126837	-0.297806	0.565672	0.118506	0	0	0.0715771	-0.0267603	0.247789	0.216547	-0.506649	0.662888	0.598839	1.08778	0	0	-0.143625	-0.19311	0.539014	0.192436	1.36611	0	0
0.6	-0.412866	1.50428	1.80634	0.707987	-0.031668	1.01195	-0.0850475	-0.025593	-0.00871274	0.638762	0.154406	0	0	0.480749	-0.117278	-0.295398	0.56725	0.0973941	0	0	0.0763136	-0.042678	0.25007	0.202707	-0.496198	0.65859	0.592186	1.09725	0	0	-0.140821	-0.198147	0.539357	0.188011	1.36423	0	0
0.61	-0.520198	1.501	1.91591	0.707509	-0.0180986	1.01289	-0.0813231	-0.0354537	0.00202423	0.661893	0.130651	0	0	0.47502	-0.108186	-0.288582	0.571561	0.0806795	0	0	0.0820359	-0.0567192	0.249191	0.187958	-0.486313	0.653157	0.587158	1.10495	0	0	-0.138316	-0.202843	0.538553	0.184218	1.36073	0	0
0.62	-0.599304	1.49653	1.99904	0.706688	-0.00463947	1.01373	-0.072647	-0.044278	0.0116153	0.69029	0.102789	0	0	0.472317	-0.0998538	-0.28459	0.579965	0.0696435	0	0	0.0881585	-0.0689821	0.245708	0.172629	-0.477786	0.648902	0.584117	1.11177	0	0	-0.135971	-0.207	0.536852	0.181233	1.35572	0	0
0.63	-0.652592	1.4905	2.05759	0.705594	0.0086253	1.0144	-0.0581947	-0.0525377	0.020467	0.723521	0.0675981	0	0	0.472032	-0.091344	-0.282056	0.590137	0.0615909	0	0	0.0953464	-0.0798717	0.240037	0.15684	-0.470063	0.644189	0.582522	1.11592	0	0	-0.133781	-0.210684	0.534776	0.178895	1.34914	0	0
0.64	-0.68279	1.48404	2.09367	0.704337	0.021676	1.01495	-0.0398337	-0.0594214	0.0292423	0.759185	0.0273315	0	0	0.47204	-0.0832261	-0.279838	0.600178	0.0562854	0	0	0.102677	-0.0889749	0.232774	0.140928	-0.463418	0.639869	0.582601	1.11498	0	0	-0.131488	-0.21393	0.53232	0.177255	1.34207	0	0
0.65	-0.696469	1.47742	2.11297	0.703092	0.0344549	1.01539	-0.0182001	-0.0644287	0.0386738	0.796709	-0.0160133	0	0	0.471	-0.0759693	-0.278401	0.608114	0.0536644	0	0	0.109964	-0.0965112	0.224486	0.125754	-0.457574	0.63821	0.583752	1.11013	0	0	-0.12925	-0.217037	0.529194	0.17675	1.33469	0	0
0.66	-0.705101	1.47088	2.127	0.701883	0.0469085	1.01578	0.0060902	-0.0682016	0.0479383	0.835954	-0.059508	0	0	0.468136	-0.0688911	-0.278699	0.612857	0.0529196	0	0	0.116336	-0.103314	0.215068	0.112084	-0.452211	0.639329	0.585308	1.10155	0	0	-0.126596	-0.220077	0.525785	0.17716	1.32758	0	0
0.67	-0.717019	1.46446	2.14423	0.700693	0.0590051	1.0162	0.0329579	-0.0717972	0.0563537	0.87755	-0.105762	0	0	0.463507	-0.0612065	-0.281469	0.615135	0.0533523	0	0	0.121529	-0.11012	0.204484	0.101501	-0.447246	0.647033	0.585384	1.0925	0	0	-0.123528	-0.223201	0.522097	0.178663	1.32038	0	0
0.68	-0.739288	1.45932	2.17154	0.699551	0.0707477	1.01678	0.0604392	-0.075303	0.064132	0.92081	-0.154858	0	0	0.455993	-0.0528696	-0.2865	0.616271	0.0551775	0	0	0.123569	-0.117011	0.192926	0.0932264	-0.442344	0.657116	0.584969	1.08284	0	0	-0.119715	-0.226628	0.518082	0.181787	1.31437	0	0
0.69	-0.768244	1.45557	2.20535	0.698472	0.0821823	1.01751	0.0881341	-0.0784328	0.0712128	0.964468	-0.20804	0	0	0.445764	-0.0443244	-0.293273	0.616956	0.0590373	0	0	0.1226	-0.123574	0.180545	0.0870056	-0.437498	0.669487	0.584051	1.07281	0	0	-0.115052	-0.230348	0.513955	0.186374	1.30995	0	0
0.7	-0.79883	1.45284	2.24029	0.6974	0.0934043	1.0183	0.116633	-0.0813783	0.0771763	1.00796	-0.262877	0	0	0.433627	-0.0360708	-0.301068	0.618151	0.0659429	0	0	0.119823	-0.129184	0.167909	0.0818064	-0.433473	0.683787	0.583767	1.06326	0	0	-0.109834	-0.234076	0.510401	0.192021	1.30807	0	0
0.71	-0.831247	1.45115	2.27737	0.696336	0.104377	1.01913	0.145236	-0.0842165	0.0812099	1.05056	-0.309962	0	0	0.419842	-0.0277405	-0.307911	0.619344	0.0746419	0	0	0.115108	-0.133968	0.154891	0.0769497	-0.42976	0.69793	0.583915	1.05664	0	0	-0.103715	-0.238158	0.50819	0.198869	1.3087	0	0
0.72	-0.863695	1.45031	2.31457	0.695309	0.115209	1.02	0.173465	-0.0868228	0.0832875	1.09177	-0.339815	0	0	0.404999	-0.0198137	-0.313514	0.62054	0.0841526	0	0	0.109329	-0.137734	0.141919	0.0720418	-0.426031	0.71167	0.583738	1.05237	0	0	-0.0970212	-0.242606	0.506849	0.206728	1.31064	0	0
0.73	-0.897314	1.45107	2.35296	0.694393	0.125975	1.02104	0.199923	-0.0881034	0.0838638	1.13077	-0.349331	0	0	0.38856	-0.0132756	-0.317831	0.621328	0.093133	0	0	0.102193	-0.14009	0.129266	0.0669998	-0.422172	0.724155	0.582855	1.05009	0	0	-0.0893466	-0.247271	0.506895	0.214695	1.31396	0	0
0.74	-0.927047	1.45294	2.38793	0.693538	0.136665	1.02219	0.22573	-0.0880225	0.0825769	1.16725	-0.344403	0	0	0.371315	-0.00815938	-0.319277	0.620289	0.101076	0	0	0.0944683	-0.140938	0.116287	0.0619507	-0.417958	0.736534	0.581005	1.0469	0	0	-0.0814545	-0.252312	0.506471	0.223775	1.31782	0	0
0.75	-0.946968	1.45482	2.41313	0.692756	0.147154	1.02332	0.252849	-0.0874538	0.0795098	1.20121	-0.32997	0	0	0.355076	-0.0041727	-0.316529	0.61722	0.107551	0	0	0.0876991	-0.140646	0.102543	0.0591028	-0.413694	0.755367	0.576831	1.04255	0	0	-0.0742373	-0.257838	0.503636	0.234364	1.32394	0	0
0.76	-0.95765	1.45734	2.42884	0.692059	0.157438	1.02444	0.280788	-0.0860206	0.075644	1.23123	-0.319416	0	0	0.339765	-0.00189969	-0.310319	0.612795	0.110935	0	0	0.0812603	-0.138721	0.090116	0.0551963	-0.409398	0.771173	0.572302	1.04111	0	0	-0.0657581	-0.263252	0.501917	0.244453	1.32981	0	0
0.77	-0.952943	1.46031	2.4296	0.691358	0.167664	1.02549	0.309641	-0.0833493	0.0707285	1.25697	-0.30949	0	0	0.326106	-0.000973424	-0.300211	0.607572	0.113216	0	0	0.0759777	-0.13504	0.0769187	0.0510816	-0.404817	0.786631	0.567011	1.03636	0	0	-0.058008	-0.268837	0.497823	0.255641	1.33675	0	0
0.78	-0.93855	1.46401	2.42112	0.690652	0.177869	1.02652	0.338093	-0.0797035	0.0647994	1.27817	-0.298978	0	0	0.313215	-0.00138907	-0.289622	0.602301	0.114395	0	0	0.0712303	-0.129803	0.0638704	0.0460174	-0.400537	0.800245	0.561751	1.03084	0	0	-0.049974	-0.274328	0.494168	0.266776	1.34504	0	0
0.79	-0.917836	1.46813	2.40624	0.690005	0.188016	1.02751	0.365983	-0.0755059	0.0584858	1.2954	-0.284425	0	0	0.300743	-0.0029752	-0.281323	0.597719	0.115423	0	0	0.0668348	-0.123539	0.0511337	0.0407656	-0.396587	0.813583	0.556297	1.0263	0	0	-0.0417254	-0.279664	0.490066	0.27786	1.35328	0	0
0.8	-0.892781	1.47232	2.3871	0.689379	0.198069	1.02845	0.393359	-0.0714657	0.0516563	1.30855	-0.266979	0	0	0.288354	-0.0053274	-0.276227	0.593845	0.116967	0	0	0.0626877	-0.116664	0.0386106	0.0352748	-0.393104	0.826761	0.550985	1.02237	0	0	-0.0332198	-0.284865	0.485661	0.288941	1.36084	0	0
0.81	-0.865369	1.47714	2.36666	0.688667	0.208008	1.02939	0.419098	-0.0677794	0.0427902	1.31731	-0.249038	0	0	0.275332	-0.00777298	-0.270163	0.590509	0.120162	0	0	0.057797	-0.109147	0.0257786	0.0292722	-0.389753	0.839727	0.545659	1.01792	0	0	-0.0247329	-0.290625	0.481814	0.301337	1.36847	0	0
0.82	-0.836817	1.48238	2.34421	0.688009	0.21789	1.0303	0.443449	-0.063766	0.0344188	1.32147	-0.232984	0	0	0.261362	-0.0108834	-0.266135	0.58743	0.124486	0	0	0.0524296	-0.10117	0.0140849	0.0234401	-0.386535	0.852615	0.539779	1.01403	0	0	-0.016425	-0.29659	0.476831	0.314652	1.37433	0	0
0.83	-0.803434	1.48705	2.31634	0.687386	0.227797	1.03111	0.467447	-0.060299	0.02683	1.32083	-0.220184	0	0	0.247487	-0.0141283	-0.264279	0.58438	0.129132	0	0	0.0477964	-0.0932361	0.00338812	0.0176829	-0.383461	0.865783	0.533247	1.01119	0	0	-0.00848307	-0.302698	0.471248	0.328564	1.37904	0	0
0.84	-0.758474	1.49078	2.2769	0.686758	0.237713	1.03176	0.491348	-0.057124	0.0196373	1.31612	-0.206983	0	0	0.234704	-0.0172823	-0.262592	0.580938	0.133543	0	0	0.0444769	-0.0852237	-0.00669975	0.0116437	-0.380263	0.878631	0.525863	1.00928	0	0	-0.000707864	-0.308713	0.465431	0.342731	1.38339	0	0
0.85	-0.702936	1.49396	2.22711	0.686125	0.247618	1.03225	0.515028	-0.0544646	0.0118096	1.30855	-0.190971	0	0	0.222874	-0.0206853	-0.260293	0.577121	0.137327	0	0	0.0418695	-0.076806	-0.0165292	0.00491366	-0.376949	0.889998	0.518269	1.00635	0	0	0.00713434	-0.314406	0.459442	0.357205	1.38724	0	0
0.86	-0.641075	1.49694	2.17073	0.685502	0.257471	1.03262	0.538005	-0.0520404	0.00399183	1.2982	-0.172444	0	0	0.211564	-0.0243201	-0.256673	0.57281	0.140114	0	0	0.0392954	-0.0680562	-0.0257352	-0.00157279	-0.373822	0.901303	0.510181	1.00415	0	0	0.0148555	-0.320249	0.453911	0.372498	1.39128	0	0
0.87	-0.578714	1.49999	2.11321	0.684934	0.267293	1.03291	0.559397	-0.0496469	-0.00316807	1.28516	-0.152956	0	0	0.199951	-0.0278787	-0.251471	0.568034	0.142401	0	0	0.0361482	-0.0592849	-0.0340035	-0.00769638	-0.370722	0.912317	0.50149	1.00223	0	0	0.0224357	-0.326428	0.448902	0.388572	1.39606	0	0
0.88	-0.508062	1.50258	2.04778	0.684462	0.277237	1.0331	0.57937	-0.0473364	-0.0102501	1.26861	-0.135702	0	0	0.188659	-0.03182	-0.245688	0.563384	0.144494	0	0	0.0335257	-0.0505053	-0.0423414	-0.0146092	-0.366724	0.920851	0.491743	0.997304	0	0	0.0297119	-0.332686	0.443909	0.404433	1.40145	0	0
